<?xml version="1.0" encoding="UTF-8" standalone="no"?>
<svg width="399px" height="399px" viewBox="0 0 399 399" version="1.1" xmlns="http://www.w3.org/2000/svg" xmlns:xlink="http://www.w3.org/1999/xlink">
    <!-- Generator: Sketch 46.2 (44496) - http://www.bohemiancoding.com/sketch -->
    <title>bluevue</title>
    <desc>Created with Sketch.</desc>
    <defs></defs>
    <g id="Page-1" stroke="none" stroke-width="1" fill="none" fill-rule="evenodd">
        <g id="bluevue">
            <ellipse id="Oval-2" fill="#0AC2F7" cx="199.5" cy="104.5" rx="17.5" ry="38.5"></ellipse>
            <ellipse id="Oval-2-Copy" fill="#0AC2F7" cx="199.5" cy="294.5" rx="17.5" ry="38.5"></ellipse>
            <ellipse id="Oval-2-Copy-2" fill="#0AC2F7" transform="translate(294.500000, 199.500000) rotate(90.000000) translate(-294.500000, -199.500000) " cx="294.5" cy="199.5" rx="17.5" ry="38.5"></ellipse>
            <ellipse id="Oval-2-Copy-3" fill="#0AC2F7" transform="translate(104.500000, 199.500000) rotate(90.000000) translate(-104.500000, -199.500000) " cx="104.5" cy="199.5" rx="17.5" ry="38.5"></ellipse>
            <ellipse id="Oval-2-Copy-4" fill="#0AC2F7" transform="translate(132.177432, 132.296057) rotate(136.000000) translate(-132.177432, -132.296057) " cx="132.177432" cy="132.296057" rx="17.5" ry="38.5"></ellipse>
            <ellipse id="Oval-2-Copy-5" fill="#0AC2F7" transform="translate(263.703943, 133.177432) rotate(226.000000) translate(-263.703943, -133.177432) " cx="263.703943" cy="133.177432" rx="17.5" ry="38.5"></ellipse>
            <ellipse id="Oval-2-Copy-6" fill="#0AC2F7" transform="translate(263.968037, 263.553824) rotate(315.000000) translate(-263.968037, -263.553824) " cx="263.968037" cy="263.553824" rx="17.5" ry="38.5"></ellipse>
            <ellipse id="Oval-2-Copy-7" fill="#0AC2F7" transform="translate(132.446176, 264.968037) rotate(405.000000) translate(-132.446176, -264.968037) " cx="132.446176" cy="264.968037" rx="17.5" ry="38.5"></ellipse>
            <ellipse id="Oval-2-Copy-8" fill="#08A9D7" transform="translate(112.283780, 235.758500) rotate(427.000000) translate(-112.283780, -235.758500) " cx="112.28378" cy="235.7585" rx="17.5" ry="38.5"></ellipse>
            <ellipse id="Oval-2-Copy-9" fill="#08A9D7" transform="translate(111.502318, 163.082510) rotate(113.000000) translate(-111.502318, -163.082510) " cx="111.502318" cy="163.08251" rx="17.5" ry="38.5"></ellipse>
            <ellipse id="Oval-2-Copy-10" fill="#08A9D7" transform="translate(163.238200, 112.035388) rotate(159.000000) translate(-163.238200, -112.035388) " cx="163.2382" cy="112.035388" rx="17.5" ry="38.5"></ellipse>
            <ellipse id="Oval-2-Copy-11" fill="#08A9D7" transform="translate(232.917490, 112.502318) rotate(203.000000) translate(-232.917490, -112.502318) " cx="232.91749" cy="112.502318" rx="17.5" ry="38.5"></ellipse>
            <ellipse id="Oval-2-Copy-12" fill="#08A9D7" transform="translate(283.353492, 162.734403) rotate(248.000000) translate(-283.353492, -162.734403) " cx="283.353492" cy="162.734403" rx="17.5" ry="38.5"></ellipse>
            <ellipse id="Oval-2-Copy-13" fill="#08A9D7" transform="translate(282.866464, 235.412962) rotate(294.000000) translate(-282.866464, -235.412962) " cx="282.866464" cy="235.412962" rx="17.5" ry="38.5"></ellipse>
            <ellipse id="Oval-2-Copy-14" fill="#08A9D7" transform="translate(233.265597, 284.353492) rotate(338.000000) translate(-233.265597, -284.353492) " cx="233.265597" cy="284.353492" rx="17.5" ry="38.5"></ellipse>
            <ellipse id="Oval-2-Copy-15" fill="#08A9D7" transform="translate(163.588771, 285.102705) rotate(382.000000) translate(-163.588771, -285.102705) " cx="163.588771" cy="285.102705" rx="17.5" ry="38.5"></ellipse>
            <circle id="Oval" fill="#E7AD19" cx="199.5" cy="199.5" r="58.5"></circle>
        </g>
    </g>
</svg>