<?xml version="1.0" encoding="UTF-8" standalone="no"?>
<svg width="400px" height="400px" viewBox="0 0 400 400" version="1.1" xmlns="http://www.w3.org/2000/svg" xmlns:xlink="http://www.w3.org/1999/xlink">
    <!-- Generator: Sketch 46.2 (44496) - http://www.bohemiancoding.com/sketch -->
    <title>ogre</title>
    <desc>Created with Sketch.</desc>
    <defs></defs>
    <g id="Page-1" stroke="none" stroke-width="1" fill="none" fill-rule="evenodd">
        <g id="ogre">
            <g id="Group" transform="translate(58.000000, -12.000000)">
                <path d="M192.763893,412 L66.2361065,412 C66.7111464,411.469244 67,410.768354 67,410 L67,410 L67,320 C67,318.343146 65.6568542,317 64,317 C62.3431458,317 61,318.343146 61,320 L61,410 C61,410.768354 61.2888536,411.469244 61.7638935,412 L31.8451834,412 L31.8451834,412 C28.3562547,412 25.2696942,409.738951 24.217592,406.412436 C8.61419733,357.077938 0.8125,320.954783 0.8125,298.042969 C0.8125,278.145996 4.91497043,242.638465 13.1199113,191.520378 L13.1199111,191.520378 C15.9930667,173.620162 32.0594604,160.876786 50.1437346,162.154207 L50.1437346,162.154207 L209.679887,173.423373 L209.679887,173.423373 C223.432835,174.394841 235.334139,183.349781 240.077319,196.29542 C256.780981,241.884993 265.132812,275.800843 265.132812,298.042969 C265.132812,322.795966 254.788903,359.170515 234.101085,407.166616 L234.101084,407.166615 C232.836738,410.099921 229.948674,412 226.754484,412 L197.236107,412 C197.711146,411.469244 198,410.768354 198,410 L198,320 C198,318.343146 196.656854,317 195,317 C193.343146,317 192,318.343146 192,320 L192,410 C192,410.768354 192.288854,411.469244 192.763893,412 Z" id="Combined-Shape" fill="#487723"></path>
                <g id="face" transform="translate(54.000000, 36.000000)">
                    <path d="M52,269.695312 C96.7350647,269.695312 142.229504,220.749953 142.229504,176.014888 C142.229504,150.867065 197.752745,68.579035 170.737316,42.3664505 C160.15468,32.0983084 130.839801,7.93372464 98.6045039,1.75316929 C66.7450414,-4.35532637 31.957885,7.46020054 22.2216914,7.46020054 C-22.5133733,7.46020054 14.1279414,118.959511 14.1279414,163.694576 C14.1279414,208.42964 7.26493527,269.695312 52,269.695312 Z" id="Oval-5" fill="#578930"></path>
                    <path d="M56,253 C71.463973,253 108.519531,232.7299 108.519531,216.4375 C108.519531,200.1451 71.463973,194 56,194 C40.536027,194 28,207.2076 28,223.5 C28,239.7924 40.536027,253 56,253 Z" id="Oval" fill="#7A2C10"></path>
                    <path d="M68.2597656,237.183594 C83.7237386,237.183594 106.519531,232.7299 106.519531,216.4375 C106.519531,200.1451 83.7237386,205.519531 68.2597656,205.519531 C52.7957926,205.519531 30,207.2076 30,223.5 C30,239.7924 52.7957926,237.183594 68.2597656,237.183594 Z" id="Oval-Copy" fill="#050505" transform="translate(68.259766, 221.003718) rotate(3.000000) translate(-68.259766, -221.003718) "></path>
                    <path d="M54,177 C67.8071187,177 79,159.09139 79,137 C79,114.90861 67.8071187,117.335938 54,117.335938 C40.1928813,117.335938 29,114.90861 29,137 C29,159.09139 40.1928813,177 54,177 Z" id="Oval-6" fill="#F5CF96"></path>
                    <path d="M109.695312,186.680422 C123.502431,186.680422 134.695312,168.771812 134.695312,146.680422 C134.695312,124.589032 123.502431,127.903078 109.695312,127.903078 C95.8881938,127.903078 84.6953125,124.589032 84.6953125,146.680422 C84.6953125,168.771812 95.8881938,186.680422 109.695312,186.680422 Z" id="Oval-6-Copy" fill="#F5CF96" transform="translate(109.695312, 157.203492) rotate(21.000000) translate(-109.695312, -157.203492) "></path>
                    <circle id="Oval-7" fill="#C10A4E" cx="57" cy="150" r="15"></circle>
                    <circle id="Oval-7-Copy" fill="#C10A4E" cx="104" cy="162" r="15"></circle>
                    <circle id="Oval-2" fill="#000000" cx="59.5" cy="154.5" r="7.5"></circle>
                    <circle id="Oval-2-Copy" fill="#000000" cx="107.5" cy="157.5" r="7.5"></circle>
                </g>
                <g id="hair" transform="translate(36.000000, 0.000000)">
                    <polygon id="Path-2-Copy" fill="#3F2808" transform="translate(104.582031, 50.283203) scale(-1, 1) rotate(-11.000000) translate(-104.582031, -50.283203) " points="18.765625 58.34375 4.21875 29.9414062 44.7382812 29.9414062 71.0117188 18.6015625 85.90625 38.4726562 116.699219 23.46875 142.277344 45.8789062 160.648438 29.9414062 168.207031 51.8242188 204.945312 58.34375 204.945312 81.9648438 182.101562 81.9648438 182.101562 71.015625 160.648438 71.015625 155.5625 58.34375 142.277344 58.34375 116.699219 66.890625 111.613281 50.2832031 85.90625 58.34375 71.0117188 50.2832031 52.8125 51.8242188 37.2226562 66.890625"></polygon>
                    <polygon id="Path-2-Copy-2" fill="#472E09" transform="translate(117.564467, 63.249777) scale(-1, 1) rotate(-11.000000) translate(-117.564467, -63.249777) " points="31.7480609 71.3103234 17.2011859 42.9079796 57.7207171 42.9079796 83.9941546 31.5681359 98.8886859 51.4392296 129.681655 36.4353234 155.25978 58.8454796 173.630873 42.9079796 181.189467 64.7907921 217.927748 71.3103234 217.927748 94.9314171 195.083998 94.9314171 195.083998 83.9821984 173.630873 83.9821984 168.544936 71.3103234 155.25978 71.3103234 129.681655 79.8571984 124.595717 63.2497765 98.8886859 71.3103234 83.9941546 63.2497765 65.7949359 64.7907921 50.2050921 79.8571984"></polygon>
                    <polygon id="Path-2" fill="#2E1C01" points="17.1484375 84.1914062 2.6015625 55.7890625 43.1210938 55.7890625 69.3945312 44.4492188 84.2890625 64.3203125 115.082031 49.3164062 140.660156 71.7265625 159.03125 55.7890625 166.589844 77.671875 203.328125 84.1914062 203.328125 107.8125 180.484375 107.8125 180.484375 96.8632812 159.03125 96.8632812 153.945312 84.1914062 140.660156 84.1914062 115.082031 92.7382812 109.996094 76.1308594 84.2890625 84.1914062 69.3945312 76.1308594 51.1953125 77.671875 35.6054688 92.7382812"></polygon>
                </g>
            </g>
        </g>
    </g>
</svg>