<?xml version="1.0" encoding="UTF-8" standalone="no"?>
<svg width="400px" height="400px" viewBox="0 0 400 400" version="1.1" xmlns="http://www.w3.org/2000/svg" xmlns:xlink="http://www.w3.org/1999/xlink">
    <!-- Generator: Sketch 46.2 (44496) - http://www.bohemiancoding.com/sketch -->
    <title>cupcake</title>
    <desc>Created with Sketch.</desc>
    <defs></defs>
    <g id="Page-1" stroke="none" stroke-width="1" fill="none" fill-rule="evenodd">
        <g id="cupcake">
            <g id="Group" transform="translate(68.000000, 98.000000)">
                <polygon id="Rectangle-4" fill="#F5CF96" points="11 114.898438 268 114.898438 240.228049 241.002395 236.433594 263 44.1914062 263"></polygon>
                <path d="M142,75.1054687 C219.319865,75.1054687 259.058594,99.4639587 259.058594,91.1796875 C259.058594,86.3239166 263.582046,50.1850124 236.710938,34.0625 C217.73813,22.6789234 173.999337,0.4921875 142,0.4921875 C108.835822,0.4921875 73.581682,19.8365285 51.9023437,34.0625 C23.0378845,53.0033445 12.9804688,97.2690336 12.9804688,102 C12.9804688,110.284271 64.680135,75.1054687 142,75.1054687 Z" id="Oval-8-Copy-2" fill="#D81831"></path>
                <path d="M151,105 C228.319865,105 272.046875,123.088959 272.046875,114.804688 C272.046875,111.134804 283.534807,95.8960192 272.046875,81.5564591 C257.602339,63.5263833 215.993397,46.1367188 172.925781,46.1367188 C95.6059163,46.1367188 11.234375,93.7157288 11.234375,102 C11.234375,110.284271 73.680135,105 151,105 Z" id="Oval-8-Copy" fill="#F30625"></path>
                <path d="M141,132 C171.231868,132 206.604256,140.636338 229.488281,138.890625 C265.131559,136.171569 281,122.045142 281,117 C281,108.715729 153.433146,91.2148438 76.1132812,91.2148438 C-1.20658372,91.2148438 1,108.715729 1,117 C1,121.301497 16.1225043,136.15546 43.1953125,138.890625 C68.2621364,141.423126 103.827443,132 141,132 Z" id="Oval-8" fill="#DC344A"></path>
            </g>
        </g>
    </g>
</svg>